<?xml version="1.0" encoding="utf-8"?>
<!-- Generator: Adobe Illustrator 21.1.0, SVG Export Plug-In . SVG Version: 6.00 Build 0)  -->
<svg version="1.1" id="Layer_1" xmlns="http://www.w3.org/2000/svg" xmlns:xlink="http://www.w3.org/1999/xlink" x="0px" y="0px"
	 viewBox="0 0 2354.5 2494.2" style="enable-background:new 0 0 2354.5 2494.2;" xml:space="preserve">
<style type="text/css">
	.st0{fill:#B3B3B3;}
	.st1{fill:#A6120D;}
	.st2{fill:#DD1B16;}
	.st3{fill:#F2F2F2;}
</style>
<path class="st0" d="M1173.5,0L0,413l185.4,1537.5l989.3,543.7l994.4-551.1l185.4-1537.4L1173.5,0z"/>
<path class="st1" d="M2237.5,494.5L1170.8,130.8v2233.5l893.9-494.7L2237.5,494.5L2237.5,494.5z"/>
<path class="st2" d="M131.7,501.1l158.9,1375l880.1,488.2V130.7L131.7,501.1L131.7,501.1z"/>
<path class="st3" d="M1464.4,1319.8l-293.6,137.3H861.3L715.8,1821l-270.6,5l725.5-1614.1L1464.4,1319.8L1464.4,1319.8z
	 M1436,1250.6l-263.3-521.2l-216,512.3h214L1436,1250.6L1436,1250.6z"/>
<path class="st0" d="M1170.7,211.9l1.9,517.5l245.1,512.7h-246.4l-0.6,214.7l340.8,0.3l159.3,368.9l258.9,4.8L1170.7,211.9
	L1170.7,211.9z"/>
</svg>
