<?xml version="1.0" encoding="utf-8"?>
<!-- Generator: Adobe Illustrator 21.1.0, SVG Export Plug-In . SVG Version: 6.00 Build 0)  -->
<svg version="1.1" id="Capa_1" xmlns="http://www.w3.org/2000/svg" xmlns:xlink="http://www.w3.org/1999/xlink" x="0px" y="0px"
	 viewBox="0 0 58 56" style="enable-background:new 0 0 58 56;" xml:space="preserve">
<style type="text/css">
	.st0{fill:#D75A4A;}
	.st1{fill:#38454F;}
</style>
<g>
	<path class="st0" d="M25,8.6C11.2,8.6,0,18.6,0,31c0,4.6,1.5,8.8,4.1,12.3C3.8,47.4,2.8,53.2,0,56c0,0,8.6-1.2,14.4-4.7
		c3.2,1.4,6.8,2.1,10.6,2.1c13.8,0,25-10,25-22.4S38.8,8.6,25,8.6z"/>
	<path class="st1" d="M58,22.4C58,10,46.8,0,33,0C23,0,14.4,5.2,10.4,12.8c4.1-2.7,9.1-4.2,14.6-4.2c13.8,0,25,10,25,22.4
		c0,4.7-1.6,9.1-4.4,12.7c5.6,2.7,12.4,3.7,12.4,3.7c-2.8-2.8-3.8-8.6-4.1-12.7C56.5,31.2,58,27,58,22.4z"/>
</g>
</svg>
