<?xml version="1.0" encoding="utf-8"?>
<!-- Generator: Adobe Illustrator 21.1.0, SVG Export Plug-In . SVG Version: 6.00 Build 0)  -->
<svg version="1.1" id="Layer_1" xmlns="http://www.w3.org/2000/svg" xmlns:xlink="http://www.w3.org/1999/xlink" x="0px" y="0px"
	 viewBox="0 0 503.7 436.7" style="enable-background:new 0 0 503.7 436.7;" xml:space="preserve">
<style type="text/css">
	.st0{fill:#E4E7E7;}
	.st1{fill:#208DB2;}
	.st2{fill:#F3F3F3;}
	.st3{fill:#A3E0F5;}
	.st4{fill:#EFC75E;}
	.st5{fill:#3DB39E;}
	.st6{fill:#4BC2AD;}
</style>
<path class="st0" d="M16.5,102.4L396.6,0.7c11.8-3.2,24.4,3.9,27.6,15.8l75.2,279.2c3.2,11.8-3.9,24-16.1,27.2L103.1,424.5
	c-11.8,3.2-24.4-3.9-27.6-15.8L0.7,129.5C-2.4,117.7,4.7,105.5,16.5,102.4z"/>
<path class="st1" d="M48.4,124.8l332.4-88.6c9.1-2.4,18.5,3.2,21.3,12.2l62.2,231.2c2.4,9.1-3.2,18.5-12.2,20.9l-332.4,88.6
	c-9.1,2.4-18.5-3.2-21.3-12.2L36.2,145.7C33.4,136.6,39,127.2,48.4,124.8z"/>
<path class="st2" d="M85.4,98.4h395.8c12.6,0,22.4,10.2,22.4,22.4v293.4c0,12.6-10.2,22.4-22.4,22.4H85.4
	c-12.6,0-22.4-10.2-22.4-22.4V120.9C63,108.7,73.2,98.4,85.4,98.4z"/>
<path class="st3" d="M111.8,129.9h343.8c9.5,0,17.3,7.9,17.3,17.3v241c0,9.5-7.9,17.3-17.3,17.3H111.8c-9.5,0-17.3-7.9-17.3-17.3
	v-241C94.5,137.8,102,129.9,111.8,129.9z"/>
<path class="st4" d="M94.5,147.3v84.3c3.9,0.4,7.9,0.8,11.8,0.8c50,0,90.6-40.6,90.6-90.6c0-3.9-0.4-7.9-0.8-11.8h-84.3
	C102,129.9,94.5,137.8,94.5,147.3z"/>
<path class="st5" d="M123.2,322.9c-9.8,0-19.7,0.8-28.8,2v63.4c0,9.5,7.9,17.3,17.3,17.3H243c0.8-3.5,1.2-6.7,1.2-10.2
	C244.1,355.2,190.2,322.9,123.2,322.9z"/>
<path class="st6" d="M397.7,287.5c-107.9,0-195.7,52.8-196.9,118.2h254.4c9.5,0,17.3-7.9,17.3-17.3v-91.8
	C449.3,291,424.1,287.5,397.7,287.5z"/>
</svg>
