<?xml version="1.0" encoding="utf-8"?>
<!-- Generator: Adobe Illustrator 21.1.0, SVG Export Plug-In . SVG Version: 6.00 Build 0)  -->
<svg version="1.1" id="Layer_1" xmlns="http://www.w3.org/2000/svg" xmlns:xlink="http://www.w3.org/1999/xlink" x="0px" y="0px"
	 viewBox="0 0 285.2 311.3" style="enable-background:new 0 0 285.2 311.3;" xml:space="preserve">
<style type="text/css">
	.st0{fill:#4E8EF7;}
</style>
<g>
	<rect x="2.1" y="240" class="st0" width="3.7" height="69.6"/>
	<path class="st0" d="M58.1,238.3c-20.9,0-36.6,15.8-36.6,36.5c0,20.9,15.8,36.5,36.6,36.5c20.9,0,36.6-15.6,36.6-36.5
		C94.7,254.1,78.9,238.3,58.1,238.3z M58.1,307.9c-18.8,0-33-14.2-33-33.1c0-18.9,14.2-33.1,33-33.1c18.8,0,33,14.2,33,33.1
		C91,293.7,76.8,307.9,58.1,307.9z"/>
	<path class="st0" d="M164.2,245.3c-7.9-6.4-17.3-7-22.2-7c-11,0-23.2,5.1-27.6,15.1h-0.3V240h-3.7v69.6h3.7v-40.1
		c0-17.5,10.8-27.8,28.2-27.8c10.5,0,16.1,3.4,19.7,6.6c5.3,4.7,8.5,12.5,8.5,24.6v36.8h3.7v-36.8
		C174.3,260.4,171,251.1,164.2,245.3z"/>
	<rect x="194.6" y="240" class="st0" width="3.7" height="69.6"/>
	<path class="st0" d="M250.6,307.9c-17.7,0-33-13.4-33-33.1c0-9.5,3.9-18.6,9.6-23.8c7.2-6.4,13.7-9.3,23.5-9.3
		c13.7,0,25.7,7.6,30.5,20.9h4.1c-5.5-16.4-20.5-24.3-34.7-24.3c-21.1,0-36.6,16-36.6,36.6c0,21.7,16.4,36.4,36.6,36.4
		c16.5,0,29.7-9.5,34.5-23.6H281C277.6,298.1,266.3,307.9,250.6,307.9z"/>
	<circle class="st0" cx="4" cy="218.5" r="4"/>
	<circle class="st0" cx="196.5" cy="218.5" r="4"/>
	<circle class="st0" cx="140.6" cy="88.9" r="36.3"/>
	<path class="st0" d="M214.7,27.3c0-6.9-5.6-12.5-12.5-12.5c-3.1,0-6,1.2-8.2,3.1C179.2,6.7,160.7,0,140.6,0
		c-49,0-88.9,39.9-88.9,88.9c0,49,39.9,88.9,88.9,88.9s88.9-39.9,88.9-88.9c0-20-6.7-38.5-17.9-53.4
		C213.6,33.3,214.7,30.4,214.7,27.3z M140.6,174.9c-47.4,0-85.9-38.6-85.9-85.9S93.2,3,140.6,3c19.3,0,37.1,6.4,51.4,17.1
		c-1.4,2-2.3,4.5-2.3,7.2c0,6.9,5.6,12.5,12.5,12.5c2.7,0,5.2-0.9,7.2-2.3c10.7,14.3,17.1,32.2,17.1,51.4
		C226.5,136.3,188,174.9,140.6,174.9z"/>
</g>
</svg>
