<?xml version="1.0" encoding="utf-8"?>
<!-- Generator: Adobe Illustrator 21.1.0, SVG Export Plug-In . SVG Version: 6.00 Build 0)  -->
<svg version="1.1" id="Layer_1" xmlns="http://www.w3.org/2000/svg" xmlns:xlink="http://www.w3.org/1999/xlink" x="0px" y="0px"
	 viewBox="0 0 685.1 467.1" style="enable-background:new 0 0 685.1 467.1;" xml:space="preserve">
<style type="text/css">
	.st0{fill:#C38762;}
	.st1{fill:#6E4439;}
	.st2{fill:#FF6473;}
	.st3{fill:#A46D4D;}
	.st4{fill:#D29771;}
	.st5{fill:#623F33;}
	.st6{fill:#F05467;}
	.st7{fill:#BD445A;}
	.st8{fill:#5E342E;}
	.st9{fill:#FFFFFF;}
	.st10{fill:#FFA0B5;}
	.st11{fill:#FF9656;}
	.st12{fill:#EF8C56;}
	.st13{fill:#FFD7A3;}
	.st14{fill:#FDC88E;}
	.st15{fill:#FF8C51;}
	.st16{fill:#589358;}
	.st17{fill:#FFE1B2;}
	.st18{fill:#E4B07B;}
	.st19{fill:#387A38;}
</style>
<g>
	<path class="st0" d="M684.9,414l-1.5-5.2c-0.7-2.5-3.2-4.1-5.7-3.8l-5.3-40c-1.8-13.1-9.9-24.6-21.8-30.5l-17.2-8.6
		c-2.6-1.3-5.5-0.1-6.8,2.3l-34.1-12.5c-6.5-2.2-10.9-8.3-10.9-15.2v-25.8l34.5-14.4c17.9-7.5,29.5-24.9,29.5-44.3v-8
		c13.3,0,24-10.7,24-24s-10.7-24-24-24v-16c0-22.1-17.9-40-40-40h-144c-22.1,0-40,17.9-40,40v72c0,19.4,11.7,36.9,29.5,44.3
		l34.5,14.4v25.8c0,6.9-4.4,13-10.9,15.2l-34.1,12.5c-1.2-2.4-4.2-3.6-6.7-2.3l-15.7,7.9c-13.4,6.7-21.6,18.1-23.3,31.3l-5.3,40
		c-2.5-0.3-5,1.2-5.7,3.8l-1.5,5.2c-0.8,2.8,0.8,5.7,3.6,6.5l11.8,3.4v24c0,8.8,7.2,16,16,16h32h176h32c8.8,0,16-7.2,16-16v-24
		l11.8-3.4C684.1,419.7,685.7,416.8,684.9,414z"/>
	<path class="st1" d="M661.5,48c-6.7-12.7-26.7-32-72-32v160h72C661.5,176,673.9,71.6,661.5,48z"/>
	<path class="st2" d="M678.7,412.9l-6.4-47.9c-1.8-13.1-9.9-24.6-21.8-30.5l-17.2-8.6c-2.9-1.5-6.3,0.2-7.2,3.4
		C615,370,577.8,400,533.5,400c-44.3,0-81.6-30-92.6-70.8c-0.9-3.1-4.2-4.8-7.1-3.3l-15.7,7.9c-13.4,6.7-21.6,18.1-23.3,31.3
		l-6.5,48.8c21.1,7.3,57.3,18.2,57.3,18.2v32h176v-32L678.7,412.9z"/>
	<path class="st3" d="M581.5,274.7l-96-21.3v47.1c0,5.8-3.2,10.8-8,13.7C544.6,325.9,581.5,274.7,581.5,274.7z"/>
	<path class="st4" d="M645.5,160v-16c0-22.1-17.9-40-40-40h-144c-22.1,0-40,17.9-40,40v72c0,19.4,11.7,36.9,29.5,44.3l51.7,21.5
		c9.8,4.1,20.2,6.2,30.8,6.2l0,0c10.6,0,21-2.1,30.8-6.2l51.7-21.5c17.9-7.5,29.5-24.9,29.5-44.3v-8c13.3,0,24-10.7,24-24
		S658.8,160,645.5,160z"/>
	<path class="st5" d="M589.5,192L589.5,192c-4.4,0-8-3.6-8-8v-8c0-4.4,3.6-8,8-8l0,0c4.4,0,8,3.6,8,8v8
		C597.5,188.4,593.9,192,589.5,192z"/>
	<path class="st3" d="M533.5,248.2c-14.2,0-27.5-3.5-36.5-9.6c-3.7-2.5-4.6-7.5-2.1-11.1c2.5-3.6,7.5-4.6,11.1-2.1
		c6.3,4.3,16.6,6.8,27.5,6.8s21.2-2.6,27.5-6.8c3.7-2.5,8.6-1.5,11.1,2.1c2.5,3.7,1.5,8.6-2.1,11.1
		C561,244.7,547.7,248.2,533.5,248.2z"/>
	<path class="st0" d="M421.5,216L421.5,216c0,19.4,11.7,36.9,29.5,44.3l51.7,21.5c2.5,1.1,5.1,2,7.7,2.7
		c-22.8-16.7-38.1-31.3-47-40.9c-6.5-6.9-10-16.1-10-25.6c0-18.8,25.3-52.1,64-66.1c37-13.4,71.5-23.7,86.1-45h-73.1
		C470.3,107,421.5,155.8,421.5,216z"/>
	<path class="st6" d="M445.3,429.6c-0.5-9.5-3.7-18.7-9.4-26.4l-37.6-50.1c-1.8,3.7-3.1,7.7-3.6,11.9l-6.3,47.6L445.3,429.6z"/>
	<path class="st7" d="M382.1,414c-0.8,2.8,0.8,5.7,3.6,6.5l59.8,17.4v-6c0-3.8-0.6-7.5-1.5-11.1l-53.9-15.7
		c-2.8-0.8-5.7,0.8-6.5,3.6L382.1,414z"/>
	<path class="st6" d="M621.7,429.6c0.5-9.5,3.7-18.7,9.4-26.4l37.6-50.1c1.8,3.7,3.1,7.7,3.6,11.9l6.3,47.6L621.7,429.6z"/>
	<path class="st7" d="M684.9,414c0.8,2.8-0.8,5.7-3.6,6.5L621.5,438v-6c0-3.8,0.6-7.5,1.5-11.1l53.9-15.7c2.8-0.8,5.7,0.8,6.5,3.6
		L684.9,414z"/>
	<path class="st1" d="M517.5,0c-180,0-112,288-112,288l32,8c0.8-53.5,6.7-114,32-136c38-33,127.6-30.3,144-64c12.7-26,0.2-69-8-80
		C605.5,16,594.2,0,517.5,0z"/>
	<path class="st8" d="M477.5,120c67.3-32.7,104-39.3,96-112c-0.2-1.4-0.4-2.8-0.7-4.1C559.9,1.7,542.1,0,517.5,0
		c-180,0-112,288-112,288l15.8,4C420.3,238.8,415.1,150.3,477.5,120z"/>
	<path class="st7" d="M617.5,47.6c0,10.8-21.7,19.5-32.5,19.5s-19.5-8.7-19.5-19.5s8.7-19.5,19.5-19.5
		C595.8,28.1,617.5,36.9,617.5,47.6z"/>
	<path class="st7" d="M617.5,47.6c0-10.8,21.7-19.5,32.5-19.5s19.5,8.7,19.5,19.5s-8.7,19.5-19.5,19.5S617.5,58.4,617.5,47.6z"/>
	<path class="st2" d="M617.5,47.6c9.3,5.4,6,28.6,0.6,37.9s-17.3,12.5-26.6,7.1c-9.3-5.4-12.5-17.3-7.1-26.6
		C589.7,56.7,608.2,42.3,617.5,47.6z"/>
	<path class="st2" d="M617.5,47.6c-9.3-5.4-6-28.6-0.6-37.9c5.4-9.3,17.3-12.5,26.6-7.1c9.3,5.4,12.5,17.3,7.1,26.6
		C645.3,38.6,626.8,53,617.5,47.6z"/>
	<path class="st6" d="M617.5,47.6c-9.3,5.4-6,28.6-0.6,37.9c5.4,9.3,17.3,12.5,26.6,7.1S656,75.4,650.6,66
		C645.3,56.7,626.8,42.3,617.5,47.6z"/>
	<path class="st6" d="M617.5,47.6c9.3-5.4,6-28.6,0.6-37.9s-17.3-12.5-26.6-7.1s-12.5,17.3-7.1,26.6C589.7,38.6,608.2,53,617.5,47.6
		z"/>
	<circle class="st9" cx="617.5" cy="47.6" r="13"/>
	<path class="st1" d="M533.5,360c-32.1,0-60.6-16.7-69.3-40.6c-1.5-4.2,0.6-8.7,4.8-10.3c4.2-1.5,8.7,0.6,10.2,4.8
		c6.4,17.7,28.7,30.1,54.2,30.1c25.4,0,47.6-12.3,54.2-29.9c1.5-4.1,6.2-6.3,10.3-4.7c4.1,1.5,6.3,6.1,4.7,10.3
		C593.9,343.4,565.4,360,533.5,360z"/>
	<circle class="st2" cx="533.5" cy="368" r="16"/>
	<path class="st6" d="M525.5,368c0-7.4,5.1-13.6,12-15.4c-1.3-0.3-2.6-0.6-4-0.6c-8.8,0-16,7.2-16,16c0,8.8,7.2,16,16,16
		c1.4,0,2.7-0.2,4-0.6C530.6,381.7,525.5,375.4,525.5,368z"/>
	<circle class="st10" cx="537.5" cy="364" r="4"/>
	<path class="st5" d="M477.5,192L477.5,192c-4.4,0-8-3.6-8-8v-8c0-4.4,3.6-8,8-8l0,0c4.4,0,8,3.6,8,8v8
		C485.5,188.4,481.9,192,477.5,192z"/>
</g>
<g>
	<path class="st11" d="M65,243.1l-49-16c0,0-1.3-34.7,8-56l-24-48c0,0,12-17.3,40-32l-8-56l72-16v-16c0,0,89.5,5.5,120,16l40-16v48
		l48-8c0,0,10,28,0,64l32,40l-24,24l8,48l-61,25L65,243.1z"/>
	<path class="st12" d="M200.7,243.8L200,107.1c0,0,1.3-82-96-104v16l-72,16l8,56c-1.8,0.9-3.4,1.8-5.1,2.8
		c-18.7,10.7-29.3,22.2-33.2,26.9c-1.2,1.4-1.8,2.3-1.8,2.3l24,48c-0.3,0.7-0.6,1.3-0.8,2c-6.5,16.6-7.2,39.8-7.2,49.5
		c0,0.8,0,1.5,0,2.1c0,1.5,0.1,2.4,0.1,2.4l49,16L200.7,243.8z"/>
	<path class="st13" d="M324.6,440.1l-10.1-81c-1.5-12.2-9.9-22.5-21.6-26.4l-43.8-14.6c-4.1-1.4-8.5,0.7-10,4.7l-12.2-4.1
		c-6.5-2.2-10.9-8.3-10.9-15.2v-25.8l34.5-14.4c17.9-7.5,29.5-24.9,29.5-44.3v-8c13.3,0,24-10.7,24-24s-10.7-24-24-24v-16
		c0-22.1-17.9-40-40-40H96c-22.1,0-40,17.9-40,40v16c-13.3,0-24,10.7-24,24s10.7,24,24,24v8c0,19.4,11.7,36.9,29.5,44.3l34.5,14.4
		v25.8c0,6.9-4.4,13-10.9,15.2l-12.2,4.1c-1.5-4-5.9-6-10-4.7l-43.8,14.6c-11.7,3.9-20.1,14.2-21.6,26.4l-10.1,81
		c-1.8,14.3,9.4,27,23.8,27h0.2h265.2h0.2C315.2,467.1,326.4,454.5,324.6,440.1z"/>
	<path class="st14" d="M216,277.8L216,277.8h-96v25.8c0,5.7-3,10.9-7.8,13.7C179.2,328.8,216,277.8,216,277.8z"/>
	<path class="st15" d="M168,355.1c-25.8,0-49.8-8-69.5-21.7l0,0c0,33.5,27.2,60.7,60.7,60.7h17.5c33.5,0,60.7-27.2,60.7-60.7l0,0
		C217.8,347.1,193.8,355.1,168,355.1z"/>
	<path class="st16" d="M324.6,440.1l-10.1-81c-1.5-12.2-9.9-22.5-21.6-26.4l-43.8-14.6c-4.2-1.4-8.8,0.8-10.1,5
		c-4,12.6-10.1,24.7-17,35.7c-25,39.6-82.9,39.6-107.9,0c-6.9-11-13-23-17-35.7c-1.3-4.2-5.9-6.4-10.1-5l-43.8,14.6
		c-11.7,3.9-20.1,14.2-21.6,26.4l-10.1,81c-1.8,14.3,9.4,27,23.8,27h265.6C315.2,467.1,326.4,454.5,324.6,440.1z"/>
	<path class="st17" d="M280,163.1v-16c0-22.1-17.9-40-40-40H96c-22.1,0-40,17.9-40,40v16c-13.3,0-24,10.7-24,24s10.7,24,24,24v8
		c0,19.4,11.7,36.9,29.5,44.3l51.7,21.5c9.8,4.1,20.2,6.2,30.8,6.2l0,0c10.6,0,21-2.1,30.8-6.2l51.7-21.5
		c17.9-7.5,29.5-24.9,29.5-44.3v-8c13.3,0,24-10.7,24-24S293.3,163.1,280,163.1z"/>
	<path class="st5" d="M112,195.1L112,195.1c-4.4,0-8-3.6-8-8v-8c0-4.4,3.6-8,8-8l0,0c4.4,0,8,3.6,8,8v8
		C120,191.5,116.4,195.1,112,195.1z"/>
	<path class="st5" d="M224,195.1L224,195.1c-4.4,0-8-3.6-8-8v-8c0-4.4,3.6-8,8-8l0,0c4.4,0,8,3.6,8,8v8
		C232,191.5,228.4,195.1,224,195.1z"/>
	<path class="st18" d="M168,251.3c-14.2,0-27.5-3.5-36.5-9.6c-3.7-2.5-4.6-7.5-2.1-11.1c2.5-3.6,7.5-4.6,11.1-2.1
		c6.3,4.3,16.6,6.8,27.5,6.8s21.2-2.6,27.5-6.8c3.7-2.5,8.6-1.5,11.1,2.1c2.5,3.7,1.5,8.6-2.1,11.1
		C195.5,247.8,182.2,251.3,168,251.3z"/>
	<path class="st19" d="M28.2,343.3c-3.6,4.5-5.9,9.9-6.7,15.8l-10.1,81c-1.8,14.3,9.4,27,23.8,27H80V415c0-7.7-2.8-15.1-7.8-21
		L28.2,343.3z"/>
	<path class="st19" d="M307.8,343.3c3.6,4.5,5.9,9.9,6.7,15.8l10.1,81c1.8,14.3-9.4,27-23.8,27H256V415c0-7.7,2.8-15.1,7.8-21
		L307.8,343.3z"/>
	<path class="st13" d="M98,246.8c-6.5-6.9-10-16.1-10-25.6V107.9c-18.3,3.7-32,19.8-32,39.2v16c-13.3,0-24,10.7-24,24s10.7,24,24,24
		v8c0,19.4,11.7,36.9,29.5,44.3l51.7,21.5c2.5,1.1,5.1,2,7.7,2.7C122.1,271,106.9,256.4,98,246.8z"/>
	<path class="st12" d="M83.9,104.1c-4.8,19-3.9,43-3.9,43c8-15.3,31.7-35.7,47-43L83.9,104.1z"/>
</g>
</svg>
