<svg id="Layer_1" data-name="Layer 1" xmlns="http://www.w3.org/2000/svg" viewBox="0 0 389.87 389.87"><defs><style>.cls-1,.cls-3{fill:#fff;}.cls-2{fill:#3791fe;}.cls-3{font-size:60.25px;font-family:Rubik-Regular, Rubik;}</style></defs><title>logo-white-one-blue</title><path class="cls-1" d="M188.4,254.65c-1.19-.82-3.29-2.06-8-2.06h-53c-15.85,0-29.46-11.92-29.46-27v-46H97.1A20.75,20.75,0,0,0,76,200.3v58.87c0,11.42,9.77,18.54,21.79,18.54h7.44v21.92l24.25-20.55c.87-.64,2.42-1.37,6-1.37h41c10.5,0,21.65-5.21,23.7-14.62Z"/><path class="cls-1" d="M237.23,109.64H138c-15.85,0-25.44,12.24-25.44,27.31v76.82c0,15.12,12.79,27.4,28.64,27.4h46.18c4.75,0,6.85,1.05,8,1.92l34.12,27.31V241.18h7.76c15.89,0,28.77-12.29,28.77-27.36V136.95C266,121.88,253.12,109.64,237.23,109.64Z"/><path class="cls-1" d="M279.75,150.92v43.69l50,27.26v-98Z"/><path class="cls-1" d="M352,79.48a30,30,0,0,0-41.61-41.61A194,194,0,0,0,194.93,0C87.28,0,0,87.28,0,194.93S87.28,389.87,194.93,389.87s194.93-87.27,194.93-194.93A194.05,194.05,0,0,0,352,79.48ZM322.23,322.23A180.15,180.15,0,1,1,300.43,49a30,30,0,0,0,40.4,40.4,179.85,179.85,0,0,1-18.6,232.8Z"/><circle class="cls-2" cx="190.37" cy="175.37" r="43.5"/><text class="cls-3" transform="translate(172.57 198.96)">3</text></svg>