<?xml version="1.0" encoding="utf-8"?>
<!-- Generator: Adobe Illustrator 21.1.0, SVG Export Plug-In . SVG Version: 6.00 Build 0)  -->
<svg version="1.1" id="svg3030" xmlns="http://www.w3.org/2000/svg" xmlns:xlink="http://www.w3.org/1999/xlink" x="0px" y="0px"
	 viewBox="0 0 563.1 159" style="enable-background:new 0 0 563.1 159;" xml:space="preserve">
<style type="text/css">
	.st0{fill:#404137;}
	.st1{fill:#83CD29;}
</style>
<g id="layer1" transform="translate(-115.94417,-501.42131)">
	<path id="path22" class="st0" d="M414.5,501.4c-0.4,0-0.8,0.1-1.2,0.3c-0.7,0.4-1.2,1.2-1.2,2.1v60.6c0,0.6-0.3,1.1-0.8,1.4
		c-0.5,0.3-1.1,0.3-1.7,0l-9.9-5.7c-1.5-0.9-3.3-0.9-4.8,0L355.4,583c-1.5,0.9-2.4,2.5-2.4,4.2v45.7c0,1.7,0.9,3.3,2.4,4.1
		l39.6,22.8c1.5,0.9,3.3,0.9,4.8,0l39.6-22.8c1.5-0.9,2.4-2.4,2.4-4.1V519c0-1.7-0.9-3.4-2.5-4.2l-23.5-13.2
		C415.3,501.5,414.9,501.4,414.5,501.4L414.5,501.4z M160,558.4c-0.8,0-1.5,0.2-2.1,0.6l-39.6,22.8c-1.5,0.9-2.4,2.4-2.4,4.1
		l0.1,61.3c0,0.9,0.4,1.6,1.2,2.1c0.7,0.4,1.6,0.4,2.4,0l23.5-13.5c1.5-0.9,2.5-2.4,2.5-4.1V603c0-1.7,0.9-3.3,2.4-4.1l10-5.8
		c0.7-0.4,1.5-0.6,2.4-0.6c0.8,0,1.7,0.2,2.4,0.6l10,5.8c1.5,0.8,2.4,2.4,2.4,4.1v28.6c0,1.7,1,3.2,2.5,4.1l23.5,13.5
		c0.7,0.4,1.6,0.4,2.4,0c0.7-0.4,1.2-1.2,1.2-2.1l0.1-61.3c0-1.7-0.9-3.3-2.4-4.1L162.6,559c-0.7-0.4-1.4-0.5-2.1-0.6H160L160,558.4
		z M515.5,559c-0.8,0-1.6,0.2-2.4,0.6l-39.6,22.8c-1.5,0.9-2.4,2.4-2.4,4.1v45.7c0,1.7,1,3.3,2.5,4.1l39.2,22.4
		c1.4,0.8,3.2,0.9,4.7,0.1l23.8-13.2c0.8-0.4,1.3-1.2,1.3-2.1c0-0.9-0.4-1.6-1.2-2.1l-39.8-22.8c-0.7-0.4-1.3-1.3-1.3-2.1v-14.3
		c0-0.9,0.5-1.6,1.3-2.1L514,593c0.7-0.4,1.6-0.4,2.4,0l12.4,7.1c0.7,0.4,1.2,1.2,1.2,2.1v11.3c0,0.9,0.5,1.6,1.2,2.1
		c0.7,0.4,1.6,0.4,2.4,0l23.7-13.8c1.5-0.9,2.4-2.4,2.4-4.1v-11c0-1.7-0.9-3.3-2.4-4.1l-39.3-22.8C517.1,559.2,516.3,559,515.5,559
		L515.5,559z M397.2,593.1c0.2,0,0.4,0.1,0.6,0.2l13.6,7.8c0.4,0.2,0.6,0.6,0.6,1v15.7c0,0.4-0.3,0.8-0.6,1l-13.6,7.8
		c-0.4,0.2-0.8,0.2-1.2,0l-13.6-7.8c-0.4-0.2-0.6-0.6-0.6-1v-15.7c0-0.4,0.3-0.8,0.6-1l13.6-7.8C396.8,593.1,397,593.1,397.2,593.1
		L397.2,593.1z"/>
	<path id="path28" class="st1" d="M634,557.9c-1.4,0-2.7,0.3-3.9,1l-37.3,21.6c-2.4,1.4-3.9,4-3.9,6.8v43c0,2.8,1.5,5.4,3.9,6.8
		l9.8,5.6c4.7,2.3,6.5,2.3,8.6,2.3c7,0,11-4.3,11-11.7v-42.5c0-0.6-0.5-1-1.1-1h-4.7c-0.6,0-1.1,0.4-1.1,1v42.5c0,3.3-3.4,6.6-9,3.8
		l-10.1-5.9c-0.4-0.2-0.6-0.5-0.6-1v-43c0-0.4,0.3-0.8,0.6-1l37.3-21.5c0.3-0.2,0.8-0.2,1.1,0l37.3,21.5c0.4,0.2,0.6,0.6,0.6,1v43
		c0,0.4-0.2,0.8-0.6,1l-37.3,21.5c-0.3,0.2-0.8,0.2-1.1,0l-9.6-5.7c-0.3-0.2-0.7-0.2-1,0c-2.6,1.5-3.1,1.7-5.6,2.5
		c-0.6,0.2-1.5,0.5,0.3,1.6l12.5,7.4c1.2,0.7,2.5,1,3.9,1c1.4,0,2.7-0.3,3.9-1l37.3-21.5c2.4-1.4,3.9-4,3.9-6.8v-43
		c0-2.8-1.5-5.4-3.9-6.8l-37.3-21.6C636.7,558.1,635.4,557.9,634,557.9L634,557.9z M278.8,558.7c-0.8,0-1.6,0.2-2.4,0.6l-39.6,22.8
		c-1.5,0.9-2.4,2.5-2.4,4.2V632c0,1.7,0.9,3.3,2.4,4.1l39.6,22.8c1.5,0.9,3.3,0.9,4.8,0l39.6-22.8c1.5-0.9,2.4-2.4,2.4-4.1v-45.7
		c0-1.7-0.9-3.3-2.4-4.2l-39.6-22.8C280.5,558.9,279.7,558.7,278.8,558.7z M644,588.6c-10.6,0-17,4.5-17,12
		c0,8.2,6.3,10.4,16.5,11.4c12.2,1.2,13.2,3,13.2,5.4c0,4.2-3.3,5.9-11.2,5.9c-9.9,0-12-2.5-12.8-7.4c-0.1-0.5-0.5-1-1-1h-4.8
		c-0.6,0-1.1,0.5-1.1,1.1c0,6.3,3.4,13.7,19.7,13.7c11.8,0,18.6-4.6,18.6-12.8c0-8.1-5.5-10.2-17-11.7c-11.6-1.5-12.7-2.3-12.7-5
		c0-2.2,0.9-5.2,9.5-5.2c7.7,0,10.5,1.7,11.7,6.8c0.1,0.5,0.5,0.9,1,0.9h4.8c0.3,0,0.6-0.2,0.8-0.4c0.2-0.2,0.3-0.5,0.3-0.8
		C661.9,592.8,655.9,588.6,644,588.6L644,588.6z M515.4,599.5c-0.2,0-0.3,0-0.5,0.1l-7.6,4.4c-0.3,0.2-0.5,0.5-0.5,0.8v8.7
		c0,0.3,0.2,0.6,0.5,0.8l7.6,4.4c0.3,0.2,0.6,0.2,0.9,0l7.6-4.4c0.3-0.2,0.5-0.5,0.5-0.8v-8.7c0-0.3-0.2-0.6-0.5-0.8l-7.6-4.4
		C515.6,599.5,515.6,599.5,515.4,599.5z"/>
</g>
</svg>
