<?xml version="1.0" encoding="utf-8"?>
<!-- Generator: Adobe Illustrator 21.1.0, SVG Export Plug-In . SVG Version: 6.00 Build 0)  -->
<svg version="1.1" id="Capa_1" xmlns="http://www.w3.org/2000/svg" xmlns:xlink="http://www.w3.org/1999/xlink" x="0px" y="0px"
	 viewBox="0 0 32 58" style="enable-background:new 0 0 32 58;" xml:space="preserve">
<style type="text/css">
	.st0{fill:#424A60;}
	.st1{fill:#E7ECED;}
	.st2{fill:#262B35;}
	.st3{fill:#7383BF;}
	.st4{fill:#AFB6BB;}
	.st5{fill:#61B872;}
</style>
<path class="st0" d="M28.6,58H3.4C1.5,58,0,56.5,0,54.6V3.4C0,1.5,1.5,0,3.4,0h25.2C30.5,0,32,1.5,32,3.4v51.2
	C32,56.5,30.5,58,28.6,58z"/>
<rect y="6" class="st1" width="32" height="40"/>
<circle class="st2" cx="16" cy="52" r="3"/>
<path class="st2" d="M16,4h-4c-0.6,0-1-0.4-1-1s0.4-1,1-1h4c0.6,0,1,0.4,1,1S16.6,4,16,4z"/>
<path class="st2" d="M20,4h-1c-0.6,0-1-0.4-1-1s0.4-1,1-1h1c0.6,0,1,0.4,1,1S20.6,4,20,4z"/>
<circle class="st3" cx="16" cy="21" r="12"/>
<path class="st0" d="M18.9,28.6c-0.4-0.2-0.7-0.7-0.7-1.2V26c0.1-0.1,0.2-0.3,0.3-0.4c0.5-0.7,0.8-1.4,1.1-2.2
	c0.4-0.1,0.8-0.5,0.8-1V21c0-0.3-0.1-0.6-0.4-0.8v-2.1c0,0,0.4-3.3-4-3.3s-4,3.3-4,3.3v2.1c-0.2,0.2-0.4,0.5-0.4,0.8v1.4
	c0,0.4,0.2,0.7,0.5,0.9c0.4,1.6,1.3,2.7,1.3,2.7v1.3c0,0.5-0.3,0.9-0.7,1.2l-3.2,1.8c-0.2,0.1-0.4,0.3-0.6,0.4c2,1.4,4.4,2.3,7,2.3
	c2.6,0,5-0.9,7-2.3c-0.2-0.2-0.4-0.3-0.6-0.4L18.9,28.6z"/>
<rect x="3" y="37" class="st4" width="26" height="6"/>
<rect x="3" y="37" class="st5" width="6" height="6"/>
</svg>
