<?xml version="1.0" encoding="utf-8"?>
<!-- Generator: Adobe Illustrator 21.1.0, SVG Export Plug-In . SVG Version: 6.00 Build 0)  -->
<svg version="1.1" id="Layer_1" xmlns="http://www.w3.org/2000/svg" xmlns:xlink="http://www.w3.org/1999/xlink" x="0px" y="0px"
	 viewBox="0 0 2435.4 2432.9" style="enable-background:new 0 0 2435.4 2432.9;" xml:space="preserve">
<style type="text/css">
	.st0{fill:#010101;}
	.st1{fill:#FFFFFF;}
</style>
<path class="st0" d="M909.3,38.4c315.1-80.8,663.4-33.7,941.3,137.8c350,209.3,578.5,605.2,584.3,1012.8
	c12.8,411.6-201.7,819.8-546.5,1043.6c-383.7,258.1-914.5,268-1306.4,22.7C182.6,2016.9-50.6,1536.1,9.3,1074.4
	C57.6,586.7,434.3,156.4,909.3,38.4L909.3,38.4z"/>
<path class="st1" d="M861.1,237.8c595.4-238.4,1325.6,201.7,1387.2,840.1c95.9,574.4-380.8,1158.1-962.8,1175
	C732,2308.2,197.1,1839,181.4,1283.2C140.1,833.2,436.6,386.7,861.1,237.8L861.1,237.8z"/>
<path class="st0" d="M920.9,1154.7c266.9-218,527.9-443.6,800.6-655.2c-143,219.8-290.1,436.6-433.1,656.4
	C1165.7,1156.4,1043,1156.4,920.9,1154.7L920.9,1154.7z M1146.5,1276.2c123.3,0,245.9,0,368.6,1.7
	c-268.6,216.9-528.5,444.2-801.7,655.2C856.4,1713.4,1003.5,1496,1146.5,1276.2L1146.5,1276.2z"/>
</svg>
