<?xml version="1.0" encoding="utf-8"?>
<!-- Generator: Adobe Illustrator 21.1.0, SVG Export Plug-In . SVG Version: 6.00 Build 0)  -->
<svg version="1.1" id="Layer_1" xmlns="http://www.w3.org/2000/svg" xmlns:xlink="http://www.w3.org/1999/xlink" x="0px" y="0px"
	 viewBox="0 0 126.7 120.4" style="enable-background:new 0 0 126.7 120.4;" xml:space="preserve">
<style type="text/css">
	.st0{fill:#5A5A5A;}
</style>
<g>
	<path class="st0" d="M121.2,41l-34.9-3.3c-2.2-0.2-4.1-1.6-5-3.7L68.8,3.8c-2-5-9.1-5-11.1,0L45.3,34c-0.8,2.1-2.8,3.5-5,3.7
		L5.4,41C0.2,41.5-1.9,48,2,51.5l26.3,23.1c1.7,1.5,2.4,3.7,1.9,5.9l-7.9,32.4c-1.2,5.1,4.3,9.3,8.9,6.6l29.1-17.1
		c1.9-1.1,4.2-1.1,6.1,0l29.1,17.1c4.6,2.7,10.1-1.4,8.9-6.6l-7.8-32.4c-0.5-2.2,0.2-4.4,1.9-5.9l26.3-23.1
		C128.6,48,126.4,41.5,121.2,41z"/>
</g>
</svg>
